<svg width="20" height="21" viewBox="0 0 20 21" xmlns="http://www.w3.org/2000/svg">
	<path fill-rule="evenodd" clip-rule="evenodd" d="M18.2301 2.04835C18.0051 1.87235 17.7238 1.78381 17.4382 1.79956C17.1468 1.81564 16.8716 1.93919 16.666 2.14632C16.6659 2.14638 16.6659 2.14644 16.6658 2.14649L7.70533 11.1827L6.86594 13.7008L9.38275 12.8619L16.5819 5.66275L15.7524 4.79232C15.5051 4.53289 15.515 4.12216 15.7745 3.87492C16.0339 3.62769 16.4446 3.63757 16.6918 3.897L17.4998 4.74483L18.3367 3.90796C18.3367 3.90794 18.3367 3.90791 18.3368 3.90789C18.5682 3.67631 18.6995 3.36307 18.7022 3.03565C18.7049 2.71417 18.5834 2.4043 18.3636 2.17035L18.2301 2.04835ZM17.3667 0.503765C17.9789 0.469987 18.5819 0.664433 19.059 1.0495C19.0694 1.05785 19.0795 1.06653 19.0893 1.07551L19.2554 1.22735C19.2653 1.23634 19.2748 1.24563 19.2841 1.2552C19.7484 1.73529 20.0055 2.37857 19.9999 3.04641C19.9944 3.71425 19.7267 4.35317 19.2545 4.82549L19.2544 4.82555L10.1921 13.8879C10.1209 13.9591 10.034 14.0128 9.93846 14.0446L6.04516 15.3424C5.81199 15.4201 5.55492 15.3594 5.38113 15.1856C5.20734 15.0119 5.14665 14.7548 5.22437 14.5216L6.52214 10.6283C6.55371 10.5336 6.60669 10.4475 6.67697 10.3766L15.7445 1.23253L15.7447 1.23236C16.1765 0.797142 16.7545 0.537542 17.3667 0.503765ZM0.950269 3.34828C1.55872 2.73983 2.38395 2.39801 3.24442 2.39801H9.08438C9.44275 2.39801 9.73327 2.68852 9.73327 3.04689C9.73327 3.40526 9.44275 3.69578 9.08438 3.69578H3.24442C2.72814 3.69578 2.233 3.90087 1.86793 4.26594C1.50286 4.63101 1.29777 5.12615 1.29777 5.64243V17.3223C1.29777 17.8386 1.50286 18.3338 1.86793 18.6988C2.233 19.0639 2.72814 19.269 3.24442 19.269H16.2221C16.7384 19.269 17.2335 19.0639 17.5986 18.6988C17.9637 18.3338 18.1688 17.8386 18.1688 17.3223V11.4824C18.1688 11.124 18.4593 10.8335 18.8176 10.8335C19.176 10.8335 19.4665 11.124 19.4665 11.4824V17.3223C19.4665 18.1828 19.1247 19.0081 18.5163 19.6165C17.9078 20.2249 17.0826 20.5668 16.2221 20.5668H3.24442C2.38395 20.5668 1.55872 20.2249 0.950269 19.6165C0.341822 19.0081 0 18.1828 0 17.3223V5.64243C0 4.78196 0.341822 3.95672 0.950269 3.34828Z" />
</svg>
