<svg width="20" height="20" viewBox="0 0 21 22" fill="none" xmlns="http://www.w3.org/2000/svg">
	<path d="M21 13.3333V19.1667C21 19.7855 20.7542 20.379 20.3166 20.8166C19.879 21.2542 19.2855 21.5 18.6667 21.5H2.33333C1.71449 21.5 1.121 21.2542 0.683417 20.8166C0.245833 20.379 0 19.7855 0 19.1667V2.83333C0 2.21449 0.245833 1.621 0.683417 1.18342C1.121 0.745833 1.71449 0.5 2.33333 0.5H8.16667V2.83333H2.33333V19.1667H18.6667V13.3333H21Z"/>
	<path d="M21 5.16667H16.3333V0.5H14V5.16667H9.33333V7.5H14V12.1667H16.3333V7.5H21"/>
</svg>
