<svg width="20" height="23" viewBox="0 0 20 23" fill="none" xmlns="http://www.w3.org/2000/svg">
<path fill-rule="evenodd" clip-rule="evenodd" d="M11.3608 1.86683C10.9908 1.52374 10.5048 1.33317 10.0002 1.33333L10 0.665461V1.33333C9.46957 1.33333 8.96086 1.54405 8.58579 1.91912C8.37285 2.13206 8.21289 2.38806 8.11438 2.66667H11.8865C11.7794 2.36386 11.6001 2.08874 11.3608 1.86683ZM13.2668 2.66667C13.1283 1.98774 12.7806 1.36505 12.2674 0.889162C11.6508 0.317392 10.8409 -0.000212991 10 1.07165e-07M13.2668 2.66667H16.6667C17.0349 2.66667 17.3333 2.96514 17.3333 3.33333V19.3333C17.3333 20.2174 16.9821 21.0652 16.357 21.6904C15.7319 22.3155 14.8841 22.6667 14 22.6667H6C5.11594 22.6667 4.2681 22.3155 3.64298 21.6904C3.01786 21.0652 2.66667 20.2174 2.66667 19.3333V3.33333C2.66667 2.96514 2.96514 2.66667 3.33333 2.66667H6.734C6.86376 2.03104 7.17739 1.4419 7.64298 0.976311C8.26805 0.351239 9.11581 5.58971e-05 9.99979 1.54849e-07M4 4V19.3333C4 19.8638 4.21071 20.3725 4.58579 20.7475C4.96086 21.1226 5.46957 21.3333 6 21.3333H14C14.5304 21.3333 15.0391 21.1226 15.4142 20.7475C15.7893 20.3725 16 19.8638 16 19.3333V4H4Z" fill="#A0A0A0"/>
<path fill-rule="evenodd" clip-rule="evenodd" d="M0 3.33333C0 2.96514 0.298477 2.66667 0.666667 2.66667H19.3333C19.7015 2.66667 20 2.96514 20 3.33333C20 3.70152 19.7015 4 19.3333 4H0.666667C0.298477 4 0 3.70152 0 3.33333Z" fill="#A0A0A0"/>
<path fill-rule="evenodd" clip-rule="evenodd" d="M7.33333 6.66667C7.70152 6.66667 8 6.96514 8 7.33333V18C8 18.3682 7.70152 18.6667 7.33333 18.6667C6.96514 18.6667 6.66667 18.3682 6.66667 18V7.33333C6.66667 6.96514 6.96514 6.66667 7.33333 6.66667Z" fill="#A0A0A0"/>
<path fill-rule="evenodd" clip-rule="evenodd" d="M12.6667 6.66667C13.0349 6.66667 13.3333 6.96514 13.3333 7.33333V18C13.3333 18.3682 13.0349 18.6667 12.6667 18.6667C12.2985 18.6667 12 18.3682 12 18V7.33333C12 6.96514 12.2985 6.66667 12.6667 6.66667Z" fill="#A0A0A0"/>
</svg>
