<svg width="16" height="16" viewBox="0 0 16 16" fill="none" xmlns="http://www.w3.org/2000/svg">
	<path fill-rule="evenodd" clip-rule="evenodd" d="M0 8.03388C0 3.5998 3.56041 0 8 0C12.4396 0 16 3.5998 16 8.03388C16 12.4735 12.4341 16 8 16C3.56594 16 0 12.4735 0 8.03388ZM5.59736 14.6482C3.92069 14.0526 2.5444 12.8481 1.7337 11.2941H4.12014C4.31472 12.1376 4.58384 12.9031 4.91409 13.5595C5.11413 13.9571 5.34268 14.325 5.59736 14.6482ZM5.08818 11.2941C5.26171 11.9854 5.4882 12.6065 5.75485 13.1365C6.40787 14.4344 7.22659 15.0588 8 15.0588C8.77341 15.0588 9.59213 14.4344 10.2452 13.1365C10.5118 12.6065 10.7383 11.9854 10.9118 11.2941H5.08818ZM11.1073 10.3529H4.89266C4.77198 9.63039 4.70588 8.85104 4.70588 8.03388C4.70588 7.19412 4.77569 6.39122 4.90288 5.64706H11.0971C11.2243 6.39122 11.2941 7.19412 11.2941 8.03388C11.2941 8.85104 11.228 9.63039 11.1073 10.3529ZM11.8799 11.2941C11.6853 12.1376 11.4162 12.9031 11.0859 13.5595C10.8859 13.9571 10.6573 14.325 10.4026 14.6482C12.0793 14.0526 13.4556 12.8481 14.2663 11.2941H11.8799ZM14.6696 10.36C14.6432 10.3553 14.616 10.3529 14.5882 10.3529H12.0606C12.1746 9.61898 12.2353 8.84024 12.2353 8.03388C12.2353 7.20495 12.1712 6.40282 12.051 5.64706H14.5882C14.6091 5.64706 14.6297 5.6457 14.6498 5.64306C14.9147 6.38991 15.0588 7.19478 15.0588 8.03388C15.0588 8.85129 14.9219 9.63365 14.6696 10.36ZM14.2388 4.70588C13.4222 3.15898 12.0526 1.95358 10.3899 1.35547C10.6504 1.68795 10.8836 2.06719 11.087 2.47647C11.4094 3.12545 11.6737 3.87879 11.867 4.70588H14.2388ZM10.8983 4.70588C10.7264 4.02958 10.5044 3.41914 10.2441 2.89529C9.58883 1.57658 8.76915 0.941176 8 0.941176C7.23085 0.941176 6.41117 1.57658 5.7559 2.89529C5.49559 3.41914 5.27361 4.02958 5.10172 4.70588H10.8983ZM4.13299 4.70588C4.32634 3.87879 4.59056 3.12545 4.91304 2.47647C5.11642 2.06719 5.34956 1.68795 5.61005 1.35547C3.94744 1.95358 2.57776 3.15898 1.76117 4.70588H4.13299ZM1.35017 5.64306C1.08527 6.38991 0.941176 7.19478 0.941176 8.03388C0.941176 8.85129 1.07806 9.63365 1.33036 10.36C1.35681 10.3553 1.384 10.3529 1.41176 10.3529H3.93938C3.82539 9.61898 3.76471 8.84024 3.76471 8.03388C3.76471 7.20495 3.82883 6.40282 3.94902 5.64706H1.41176C1.39089 5.64706 1.37033 5.6457 1.35017 5.64306Z" />
</svg>
