<svg width="16" height="16" viewBox="0 0 16 16" fill="none" xmlns="http://www.w3.org/2000/svg">
	<path fill-rule="evenodd" clip-rule="evenodd" d="M8 0.941176C4.10152 0.941176 0.941176 4.10152 0.941176 8C0.941176 11.8985 4.10152 15.0588 8 15.0588C11.8985 15.0588 15.0588 11.8985 15.0588 8C15.0588 4.10152 11.8985 0.941176 8 0.941176ZM0 8C0 3.58172 3.58172 0 8 0C12.4183 0 16 3.58172 16 8C16 12.4183 12.4183 16 8 16C3.58172 16 0 12.4183 0 8Z" />
	<path fill-rule="evenodd" clip-rule="evenodd" d="M8 3.76471C8.2599 3.76471 8.47059 3.9754 8.47059 4.23529V8.94118C8.47059 9.20108 8.2599 9.41177 8 9.41177C7.7401 9.41177 7.52941 9.20108 7.52941 8.94118V4.23529C7.52941 3.9754 7.7401 3.76471 8 3.76471Z" />
	<path d="M8 12.7059C8.5198 12.7059 8.94118 12.2845 8.94118 11.7647C8.94118 11.2449 8.5198 10.8235 8 10.8235C7.4802 10.8235 7.05882 11.2449 7.05882 11.7647C7.05882 12.2845 7.4802 12.7059 8 12.7059Z" />
</svg>
