<svg width="25" height="17" viewBox="0 0 25 17" fill="none" xmlns="http://www.w3.org/2000/svg">
<path fill-rule="evenodd" clip-rule="evenodd" d="M0.123354 7.93823C3.71756 2.74314 7.83763 0 12.5 0C17.1624 0 21.2824 2.74314 24.8766 7.93823C25.0411 8.17596 25.0411 8.49071 24.8766 8.72844C21.2824 13.9235 17.1624 16.6667 12.5 16.6667C7.83763 16.6667 3.71756 13.9235 0.123354 8.72844C-0.0411181 8.49071 -0.0411181 8.17596 0.123354 7.93823ZM1.54345 8.33333C4.91947 13.0533 8.57585 15.2778 12.5 15.2778C16.4242 15.2778 20.0805 13.0533 23.4566 8.33333C20.0805 3.61337 16.4242 1.38889 12.5 1.38889C8.57585 1.38889 4.91947 3.61337 1.54345 8.33333ZM12.5 4.16667C11.6483 4.16673 10.8171 4.42778 10.1183 4.91465C9.41956 5.40153 8.88675 6.09086 8.59168 6.8898C8.29662 7.68874 8.25347 8.55892 8.46806 9.38313C8.68264 10.2073 9.14464 10.946 9.79185 11.4996C10.439 12.0532 11.2404 12.3952 12.0879 12.4795C12.9354 12.5638 13.7883 12.3864 14.5319 11.9711C15.2755 11.5559 15.874 10.9227 16.2467 10.1569C16.5245 9.58634 16.6669 8.96257 16.667 8.3336C16.2501 8.33354 15.834 8.2709 15.4331 8.14652C14.7868 7.94605 14.1991 7.59122 13.7208 7.1127C13.2424 6.63418 12.8878 6.04637 12.6876 5.40007C12.5634 4.99924 12.5009 4.5834 12.5009 4.16667C12.5006 4.16667 12.5003 4.16667 12.5 4.16667M9.32436 3.77509C10.2561 3.12591 11.3644 2.77785 12.5 2.77778H12.5C12.7921 2.77778 13.0798 2.79989 13.3627 2.84464C13.5479 2.87393 13.7133 2.97686 13.8215 3.13001C13.9296 3.28316 13.9712 3.47353 13.9368 3.65783C13.8542 4.10126 13.8807 4.55816 14.0142 4.98903C14.1477 5.41989 14.3842 5.81177 14.7031 6.13078C15.022 6.44979 15.4137 6.68634 15.8446 6.81999C16.2754 6.95363 16.7323 6.98035 17.1757 6.89783C17.3602 6.86351 17.5507 6.90528 17.7038 7.01362C17.857 7.12197 17.9598 7.28767 17.9888 7.47302C18.1647 8.5949 17.9925 9.74372 17.4955 10.7648C16.9985 11.7858 16.2006 12.63 15.2091 13.1837C14.2177 13.7374 13.0804 13.974 11.9504 13.8616C10.8204 13.7492 9.75196 13.2932 8.88902 12.555C8.02609 11.8169 7.41008 10.832 7.12397 9.73306C6.83786 8.63411 6.89539 7.47388 7.28881 6.40863C7.68223 5.34337 8.39264 4.42427 9.32436 3.77509Z" fill="#A0A0A0"/>
</svg>
