<svg width="25" height="20" viewBox="0 0 25 20" fill="none" xmlns="http://www.w3.org/2000/svg">
<path fill-rule="evenodd" clip-rule="evenodd" d="M2.98251 0.202063C3.25445 -0.0683952 3.69415 -0.0671978 3.9646 0.204737L22.0202 18.3589C22.2906 18.6308 22.2894 19.0705 22.0175 19.341C21.7456 19.6114 21.3059 19.6103 21.0354 19.3383L18.2495 16.5372C16.4258 17.5439 14.5061 18.0556 12.5 18.0556C7.83763 18.0556 3.71756 15.3124 0.123354 10.1173C-0.0410925 9.87963 -0.0411204 9.56494 0.123284 9.32722C1.7952 6.9097 3.57894 5.02406 5.48134 3.69931L2.97984 1.18415C2.70938 0.912217 2.71058 0.472521 2.98251 0.202063ZM6.44171 4.72482C4.7511 5.86553 3.11562 7.52357 1.54341 9.72216C4.91944 14.4422 8.57583 16.6667 12.5 16.6667C14.0621 16.6667 15.5711 16.3149 17.032 15.6047L6.44171 4.72482ZM8.91131 1.96053C10.0758 1.58121 11.2734 1.38889 12.5 1.38889C17.1624 1.38889 21.2824 4.13203 24.8766 9.32711C25.0412 9.56493 25.0411 9.8798 24.8765 10.1176C23.5933 11.9708 22.2466 13.5097 20.8317 14.7253C20.5408 14.9753 20.1024 14.9421 19.8524 14.6512C19.6025 14.3603 19.6357 13.9218 19.9266 13.6719C21.1356 12.6331 22.3128 11.3196 23.4564 9.72205C20.0804 5.00221 16.4241 2.77778 12.5 2.77778C11.421 2.77778 10.3686 2.94657 9.34147 3.28113C8.97679 3.39992 8.58487 3.20058 8.46609 2.83591C8.34731 2.47124 8.54664 2.07932 8.91131 1.96053Z" fill="#A0A0A0"/>
</svg>
