<svg width="21" height="20" viewBox="0 0 21 20" fill="none" xmlns="http://www.w3.org/2000/svg">
	<path fill-rule="evenodd" clip-rule="evenodd" d="M16.1001 11.4286C15.1718 11.4286 14.2816 11.8048 13.6252 12.4746C12.9688 13.1444 12.6001 14.0528 12.6001 15C12.6001 15.9472 12.9688 16.8556 13.6252 17.5254C14.2816 18.1952 15.1718 18.5714 16.1001 18.5714C17.0283 18.5714 17.9186 18.1952 18.5749 17.5254C19.2313 16.8556 19.6001 15.9472 19.6001 15C19.6001 14.0528 19.2313 13.1444 18.5749 12.4746C17.9186 11.8048 17.0283 11.4286 16.1001 11.4286ZM12.6675 11.4318C13.5832 10.5146 14.8157 10 16.1001 10C17.3996 10 18.646 10.5268 19.5649 11.4645C20.4838 12.4022 21.0001 13.6739 21.0001 15C21.0001 16.3261 20.4838 17.5979 19.5649 18.5355C18.646 19.4732 17.3996 20 16.1001 20C14.8157 20 13.5832 19.4854 12.6675 18.5682C12.6453 18.5703 12.6228 18.5714 12.6001 18.5714H3.50006C2.84888 18.5714 1.97678 18.4444 1.25154 17.902C0.486768 17.33 6.38962e-05 16.3835 6.38962e-05 15C6.38962e-05 13.6165 0.486768 12.67 1.25154 12.098C1.97678 11.5556 2.84888 11.4286 3.50006 11.4286H12.6001C12.6228 11.4286 12.6453 11.4297 12.6675 11.4318ZM11.6729 12.8571H3.50006C2.99204 12.8571 2.46415 12.9623 2.07919 13.2502C1.73376 13.5086 1.40006 13.9907 1.40006 15C1.40006 16.0093 1.73376 16.4914 2.07919 16.7498C2.46415 17.0377 2.99204 17.1429 3.50006 17.1429H11.6729C11.3645 16.4794 11.2001 15.7483 11.2001 15C11.2001 14.2517 11.3645 13.5206 11.6729 12.8571Z" />
	<path fill-rule="evenodd" clip-rule="evenodd" d="M4.89999 1.42857C5.82825 1.42857 6.71849 1.80485 7.37487 2.47462C8.03124 3.14439 8.39999 4.0528 8.39999 5C8.39999 5.9472 8.03124 6.85561 7.37487 7.52538C6.71849 8.19516 5.82825 8.57143 4.89999 8.57143C3.97173 8.57143 3.0815 8.19516 2.42512 7.52538C1.76874 6.85561 1.39999 5.9472 1.39999 5C1.39999 4.0528 1.76874 3.14439 2.42512 2.47462C3.0815 1.80485 3.97173 1.42857 4.89999 1.42857ZM8.33255 1.43185C7.41682 0.514577 6.1844 2.86102e-06 4.89999 2.86102e-06C3.60043 2.86102e-06 2.3541 0.526785 1.43517 1.46447C0.516241 2.40215 -8.58307e-06 3.67392 -8.58307e-06 5C-8.58307e-06 6.32609 0.516241 7.59786 1.43517 8.53554C2.3541 9.47322 3.60043 10 4.89999 10C6.1844 10 7.41682 9.48543 8.33255 8.56816C8.35474 8.57032 8.37724 8.57143 8.39999 8.57143H17.5C18.1512 8.57143 19.0233 8.44443 19.7485 7.902C20.5133 7.33 21 6.38352 21 5C21 3.61649 20.5133 2.67001 19.7485 2.09801C19.0233 1.55557 18.1512 1.42857 17.5 1.42857H8.39999C8.37724 1.42857 8.35474 1.42968 8.33255 1.43185ZM9.32718 2.85715H17.5C18.008 2.85715 18.5359 2.96229 18.9209 3.25021C19.2663 3.50857 19.6 3.99066 19.6 5C19.6 6.00935 19.2663 6.49144 18.9209 6.74979C18.5359 7.03772 18.008 7.14286 17.5 7.14286H9.32718C9.63559 6.47939 9.79999 5.74835 9.79999 5C9.79999 4.25166 9.63559 3.52061 9.32718 2.85715Z" />
</svg>
