<svg width="12" height="12" viewBox="0 0 12 12" fill="none" xmlns="http://www.w3.org/2000/svg">
	<path fill-rule="evenodd" clip-rule="evenodd" d="M8.63305 7.69077L11.7714 10.8291C11.8817 10.9395 11.9436 11.0892 11.9436 11.2452C11.9435 11.4013 11.8815 11.5509 11.7711 11.6612C11.6607 11.7715 11.511 11.8335 11.355 11.8334C11.1989 11.8334 11.0493 11.7713 10.939 11.6609L7.80063 8.5226C6.86247 9.24925 5.68271 9.5912 4.50138 9.47889C3.32004 9.36658 2.22585 8.80845 1.44142 7.91804C0.656979 7.02763 0.241213 5.87183 0.278698 4.68576C0.316184 3.49968 0.804106 2.37244 1.6432 1.53334C2.4823 0.694243 3.60955 0.206321 4.79562 0.168835C5.98169 0.131349 7.1375 0.547115 8.02791 1.33155C8.91832 2.11599 9.47645 3.21017 9.58876 4.39151C9.70106 5.57285 9.35911 6.7526 8.63247 7.69077H8.63305ZM4.94347 8.33302C5.87173 8.33302 6.76196 7.96427 7.41834 7.30789C8.07472 6.65152 8.44347 5.76128 8.44347 4.83302C8.44347 3.90476 8.07472 3.01453 7.41834 2.35815C6.76196 1.70177 5.87173 1.33302 4.94347 1.33302C4.01521 1.33302 3.12497 1.70177 2.46859 2.35815C1.81222 3.01453 1.44347 3.90476 1.44347 4.83302C1.44347 5.76128 1.81222 6.65152 2.46859 7.30789C3.12497 7.96427 4.01521 8.33302 4.94347 8.33302Z"/>
</svg>
