<svg width="9" height="16" viewBox="0 0 9 16" fill="none" xmlns="http://www.w3.org/2000/svg">
<path fill-rule="evenodd" clip-rule="evenodd" d="M3.90808 0.729503C4.15061 0.486976 4.54382 0.486976 4.78635 0.729503L8.51253 4.45569C8.75506 4.69821 8.75506 5.09143 8.51253 5.33396C8.27 5.57648 7.87679 5.57648 7.63426 5.33396L4.34721 2.04691L1.06017 5.33396C0.817638 5.57648 0.424423 5.57648 0.181896 5.33396C-0.0606319 5.09143 -0.0606319 4.69821 0.181896 4.45569L3.90808 0.729503ZM0.181896 10.666C0.424423 10.4235 0.817638 10.4235 1.06017 10.666L4.34721 13.953L7.63426 10.666C7.87679 10.4235 8.27 10.4235 8.51253 10.666C8.75506 10.9085 8.75506 11.3017 8.51253 11.5443L4.78635 15.2704C4.54382 15.513 4.15061 15.513 3.90808 15.2704L0.181896 11.5443C-0.0606319 11.3017 -0.0606319 10.9085 0.181896 10.666Z" fill="#A0A0A0"/>
</svg>
