<svg width="21" height="21" viewBox="0 0 20 20" xmlns="http://www.w3.org/2000/svg">
	<path fill-rule="evenodd" clip-rule="evenodd" d="M3.33333 0H16.6667C17.5507 0 18.3986 0.351189 19.0237 0.976311C19.6488 1.60143 20 2.44928 20 3.33333V16.6667C20 17.5507 19.6488 18.3986 19.0237 19.0237C18.3986 19.6488 17.5507 20 16.6667 20H3.33333C2.44928 20 1.60143 19.6488 0.976311 19.0237C0.351189 18.3986 0 17.5507 0 16.6667V3.33333C0 2.44928 0.351189 1.60143 0.976311 0.976311C1.60143 0.351189 2.44928 0 3.33333 0ZM1.33333 3.33333V16.6667C1.33333 17.7496 2.34559 18.6667 3.33332 18.6667C2.90311 18.0931 2.66667 17.3921 2.66667 16.6667V3.33333C2.66667 2.60794 2.90311 1.90693 3.33332 1.33333C2.34559 1.33334 1.33333 2.25038 1.33333 3.33333ZM6 18.6667H16.6667C17.1971 18.6667 17.7058 18.456 18.0809 18.0809C18.456 17.7058 18.6667 17.1971 18.6667 16.6667V3.33333C18.6667 2.8029 18.456 2.29419 18.0809 1.91912C17.7058 1.54405 17.1971 1.33333 16.6667 1.33333H6C5.46957 1.33333 4.96086 1.54405 4.58579 1.91912C4.21071 2.29419 4 2.8029 4 3.33333V16.6667C4 17.1971 4.21071 17.7058 4.58579 18.0809C4.96086 18.456 5.46957 18.6667 6 18.6667ZM10.4714 5.5286C10.7318 5.78895 10.7318 6.21105 10.4714 6.4714L7.60948 9.33333H16.6667C17.0349 9.33333 17.3333 9.63181 17.3333 10C17.3333 10.3682 17.0349 10.6667 16.6667 10.6667H7.60948L10.4714 13.5286C10.7318 13.7889 10.7318 14.2111 10.4714 14.4714C10.2111 14.7318 9.78894 14.7318 9.52859 14.4714L5.5286 10.4714C5.26825 10.2111 5.26825 9.78894 5.5286 9.52859L9.52859 5.5286C9.78894 5.26825 10.2111 5.26825 10.4714 5.5286Z" />
</svg>
