<svg width="20" height="20" viewBox="0 0 20 20" fill="none" xmlns="http://www.w3.org/2000/svg">
<path fill-rule="evenodd" clip-rule="evenodd" d="M3.33333 1.33333C2.8029 1.33333 2.29419 1.54405 1.91912 1.91912C1.54405 2.29419 1.33333 2.8029 1.33333 3.33333V16.6667C1.33333 17.1971 1.54405 17.7058 1.91912 18.0809C2.29419 18.456 2.8029 18.6667 3.33333 18.6667H14C14.5304 18.6667 15.0391 18.456 15.4142 18.0809C15.7893 17.7058 16 17.1971 16 16.6667V3.33333C16 2.8029 15.7893 2.29419 15.4142 1.91912C15.0391 1.54405 14.5304 1.33333 14 1.33333H3.33333ZM3.33333 0C2.44928 0 1.60143 0.351189 0.976311 0.976311C0.351189 1.60143 0 2.44928 0 3.33333V16.6667C0 17.5507 0.351189 18.3986 0.976311 19.0237C1.60143 19.6488 2.44928 20 3.33333 20H16.6667C17.5507 20 18.3986 19.6488 19.0237 19.0237C19.6488 18.3986 20 17.5507 20 16.6667V3.33333C20 2.44928 19.6488 1.60143 19.0237 0.976311C18.3986 0.351189 17.5507 0 16.6667 0H3.33333ZM16.6667 1.33333C17.6544 1.33334 18.6667 2.25038 18.6667 3.33333V16.6667C18.6667 17.7496 17.6544 18.6667 16.6667 18.6667C17.0969 18.0931 17.3333 17.3921 17.3333 16.6667V3.33333C17.3333 2.60794 17.0969 1.90693 16.6667 1.33333ZM9.52859 5.5286C9.78894 5.26825 10.2111 5.26825 10.4714 5.5286L14.4714 9.52859C14.5964 9.65362 14.6667 9.82319 14.6667 10C14.6667 10.1768 14.5964 10.3464 14.4714 10.4714L10.4714 14.4714C10.2111 14.7318 9.78894 14.7318 9.52859 14.4714C9.26824 14.2111 9.26824 13.7889 9.52859 13.5286L12.3905 10.6667H3.33333C2.96514 10.6667 2.66667 10.3682 2.66667 10C2.66667 9.63181 2.96514 9.33333 3.33333 9.33333H12.3905L9.52859 6.4714C9.26824 6.21105 9.26824 5.78895 9.52859 5.5286Z" fill="#A0A0A0"/>
</svg>
