<svg width="16" height="16" viewBox="0 0 16 16" fill="none" xmlns="http://www.w3.org/2000/svg">
	<path fill-rule="evenodd" clip-rule="evenodd" d="M8 0.941176C4.10152 0.941176 0.941176 4.10152 0.941176 8C0.941176 11.8985 4.10152 15.0588 8 15.0588C11.8985 15.0588 15.0588 11.8985 15.0588 8C15.0588 4.10152 11.8985 0.941176 8 0.941176ZM0 8C0 3.58172 3.58172 0 8 0C12.4183 0 16 3.58172 16 8C16 12.4183 12.4183 16 8 16C3.58172 16 0 12.4183 0 8Z" />
	<path fill-rule="evenodd" clip-rule="evenodd" d="M4.27647 10.0932C5.36109 9.59882 6.67287 9.38824 8 9.38824C9.35154 9.38824 10.6806 9.56828 11.7685 10.0494C12.8691 10.5361 13.74 11.3416 14.0989 12.5743C14.1715 12.8239 14.0281 13.0851 13.7786 13.1577C13.5291 13.2304 13.2679 13.087 13.1952 12.8374C12.931 11.9299 12.2961 11.3119 11.3878 10.9101C10.4667 10.5028 9.28376 10.3294 8 10.3294C6.76054 10.3294 5.59232 10.5278 4.66683 10.9496C3.74756 11.3686 3.09035 11.9954 2.79867 12.8568C2.71532 13.103 2.44819 13.235 2.20202 13.1516C1.95585 13.0683 1.82386 12.8011 1.90721 12.555C2.3026 11.3872 3.18561 10.5904 4.27647 10.0932Z" />
	<path fill-rule="evenodd" clip-rule="evenodd" d="M8 2.82353C7.37596 2.82353 6.77748 3.07143 6.33622 3.51269C5.89496 3.95395 5.64706 4.55243 5.64706 5.17647V7.05882C5.64706 7.68286 5.89496 8.28134 6.33622 8.7226C6.77748 9.16387 7.37596 9.41177 8 9.41177C8.62404 9.41177 9.22252 9.16387 9.66378 8.7226C10.105 8.28134 10.3529 7.68286 10.3529 7.05882V5.17647C10.3529 4.55243 10.105 3.95395 9.66378 3.51269C9.22252 3.07143 8.62404 2.82353 8 2.82353ZM5.67071 2.84718C6.28847 2.22941 7.12635 1.88235 8 1.88235C8.87365 1.88235 9.71153 2.22941 10.3293 2.84718C10.9471 3.46494 11.2941 4.30282 11.2941 5.17647V7.05882C11.2941 7.93248 10.9471 8.77035 10.3293 9.38812C9.71153 10.0059 8.87365 10.3529 8 10.3529C7.12635 10.3529 6.28847 10.0059 5.67071 9.38812C5.05294 8.77035 4.70588 7.93248 4.70588 7.05882V5.17647C4.70588 4.30282 5.05294 3.46494 5.67071 2.84718Z" />
</svg>
